<svg version="1.1" id="Layer_1" xmlns="http://www.w3.org/2000/svg" xmlns:xlink="http://www.w3.org/1999/xlink" x="0px" y="0px"
	 width="100%" viewBox="0 0 950 950" enable-background="new 0 0 950 950" xml:space="preserve">
<path fill="#F1F5F7" opacity="1.000000" stroke="none" 
	d="
M532.000000,951.000000 
	C354.666656,951.000000 177.833328,951.000000 1.000000,951.000000 
	C1.000000,634.333313 1.000000,317.666656 1.000000,1.000000 
	C317.666656,1.000000 634.333313,1.000000 951.000000,1.000000 
	C951.000000,317.666656 951.000000,634.333313 951.000000,951.000000 
	C811.500000,951.000000 672.000000,951.000000 532.000000,951.000000 
M213.907623,672.255127 
	C213.441208,672.232239 212.974808,672.209351 212.508377,672.186523 
	C212.772995,672.667297 213.037613,673.148010 213.695679,674.176086 
	C224.478531,684.990295 234.682083,696.472717 246.190506,706.449951 
	C260.652985,718.988098 275.765808,730.878784 291.341919,742.007690 
	C322.179871,764.041016 355.305847,782.239380 389.578522,798.386902 
	C417.673462,811.623718 446.300507,823.519287 475.872467,833.045044 
	C478.173309,833.786255 481.215820,833.859680 483.426819,832.996521 
	C510.630646,822.376160 538.204773,812.540344 564.774231,800.496460 
	C606.581238,781.545654 646.335571,758.785828 683.169128,731.145203 
	C704.210632,715.355286 723.671936,697.855774 741.746216,678.781799 
	C743.600525,676.825073 745.120056,674.551147 747.369263,671.695129 
	C729.042175,677.663086 711.389648,682.080994 693.082458,684.222046 
	C670.950439,686.810547 648.978577,686.207886 627.170044,682.544800 
	C600.088257,677.996033 574.520325,668.859253 550.571777,655.153442 
	C520.904663,638.174805 496.507446,615.400757 475.973877,588.348633 
	C465.350647,574.352905 456.962219,559.001953 450.058167,542.817566 
	C438.307190,515.271118 431.985107,486.580475 431.041046,456.648468 
	C430.780273,448.380127 430.363159,440.065033 429.209106,431.885468 
	C424.122192,395.831451 407.269745,365.981873 378.840179,343.578613 
	C345.364166,317.198608 306.993835,307.598999 264.916321,315.955139 
	C220.880692,324.700104 188.084473,349.323395 167.143066,388.934875 
	C152.793335,416.077850 148.635834,445.177795 153.804611,475.572235 
	C159.920242,511.534515 177.775650,540.708130 206.500671,562.522461 
	C239.202423,587.356750 276.514343,596.069641 317.139191,589.004944 
	C337.121094,585.530151 355.330872,577.639709 371.962799,565.926697 
	C386.520844,555.674255 398.389191,542.926025 408.752991,527.655457 
	C409.646088,529.355225 410.518097,530.506348 410.892181,531.801331 
	C419.641266,562.086487 433.911224,589.613159 452.549591,614.921387 
	C454.509338,617.582458 454.628723,619.059937 452.143311,621.404846 
	C436.897217,635.788940 420.157440,648.108398 401.682129,657.975830 
	C375.471313,671.974548 347.673218,680.797668 318.030273,684.182678 
	C295.739044,686.728149 273.639984,686.269531 251.707184,682.040283 
	C239.088150,679.606995 226.717316,675.886536 213.907623,672.255127 
M717.475586,582.092651 
	C770.504395,561.983704 806.712463,510.926941 807.411255,453.947571 
	C808.080322,399.392761 775.886353,344.846008 720.580933,324.014526 
	C652.138489,298.234833 595.968872,318.111450 550.828979,374.433289 
	C540.546997,342.026245 524.959045,312.239227 503.277344,285.294006 
	C531.798096,257.491852 564.884766,237.518906 603.172119,227.433716 
	C676.617676,208.087570 744.672791,220.775024 807.322815,265.286774 
	C807.322815,262.885986 807.322876,261.274841 807.322876,259.663666 
	C807.322388,222.166290 807.227966,184.668365 807.441101,147.172211 
	C807.467590,142.518402 805.812805,140.733078 801.585510,139.915070 
	C784.585632,136.625488 767.726807,132.420486 750.615051,129.939377 
	C725.738220,126.332390 700.728333,123.493774 675.699158,121.133553 
	C654.738464,119.156998 633.679993,118.112152 612.644287,117.067482 
	C593.064880,116.095146 573.459106,115.127769 553.863831,115.104973 
	C502.237457,115.044930 450.608948,115.341316 398.984467,115.828804 
	C379.052704,116.017006 359.121613,116.930923 339.204865,117.836311 
	C323.302734,118.559196 307.393616,119.440025 291.539978,120.842781 
	C268.128815,122.914253 244.661804,124.790497 221.409576,128.094131 
	C199.711655,131.176941 178.262802,136.013123 156.704788,140.080093 
	C153.126266,140.755188 151.700394,142.573395 151.718002,146.544022 
	C151.887222,184.707275 151.817093,222.871582 151.833130,261.035583 
	C151.833633,262.240723 152.024124,263.445801 152.163101,265.088989 
	C153.655457,264.188995 154.633041,263.617859 155.592590,263.017914 
	C165.118851,257.061615 174.308411,250.463867 184.230392,245.263199 
	C211.305908,231.071350 240.111740,222.550919 270.696808,219.884842 
	C293.207794,217.922592 315.397278,219.261230 337.472107,223.829819 
	C360.775024,228.652542 382.813538,236.846817 403.631348,248.344345 
	C430.476654,263.170776 453.679993,282.485382 473.248016,306.016815 
	C488.625427,324.508820 500.809021,345.033386 510.075104,367.279114 
	C520.920349,393.316162 526.790955,420.412170 528.061951,448.566254 
	C528.434875,456.827850 528.779724,465.138763 529.963135,473.307465 
	C535.293030,510.098083 552.919067,540.287170 582.377441,562.433655 
	C623.187683,593.114502 668.455322,599.222168 717.475586,582.092651 
z"/>
<path fill="#EE7203" opacity="1.000000" stroke="none" 
	d="
M717.097778,582.199829 
	C668.455322,599.222168 623.187683,593.114502 582.377441,562.433655 
	C552.919067,540.287170 535.293030,510.098083 529.963135,473.307465 
	C528.779724,465.138763 528.434875,456.827850 528.061951,448.566254 
	C526.790955,420.412170 520.920349,393.316162 510.075104,367.279114 
	C500.809021,345.033386 488.625427,324.508820 473.248016,306.016815 
	C453.679993,282.485382 430.476654,263.170776 403.631348,248.344345 
	C382.813538,236.846817 360.775024,228.652542 337.472107,223.829819 
	C315.397278,219.261230 293.207794,217.922592 270.696808,219.884842 
	C240.111740,222.550919 211.305908,231.071350 184.230392,245.263199 
	C174.308411,250.463867 165.118851,257.061615 155.592590,263.017914 
	C154.633041,263.617859 153.655457,264.188995 152.163101,265.088989 
	C152.024124,263.445801 151.833633,262.240723 151.833130,261.035583 
	C151.817093,222.871582 151.887222,184.707275 151.718002,146.544022 
	C151.700394,142.573395 153.126266,140.755188 156.704788,140.080093 
	C178.262802,136.013123 199.711655,131.176941 221.409576,128.094131 
	C244.661804,124.790497 268.128815,122.914253 291.539978,120.842781 
	C307.393616,119.440025 323.302734,118.559196 339.204865,117.836311 
	C359.121613,116.930923 379.052704,116.017006 398.984467,115.828804 
	C450.608948,115.341316 502.237457,115.044930 553.863831,115.104973 
	C573.459106,115.127769 593.064880,116.095146 612.644287,117.067482 
	C633.679993,118.112152 654.738464,119.156998 675.699158,121.133553 
	C700.728333,123.493774 725.738220,126.332390 750.615051,129.939377 
	C767.726807,132.420486 784.585632,136.625488 801.585510,139.915070 
	C805.812805,140.733078 807.467590,142.518402 807.441101,147.172211 
	C807.227966,184.668365 807.322388,222.166290 807.322876,259.663666 
	C807.322876,261.274841 807.322815,262.885986 807.322815,265.286774 
	C744.672791,220.775024 676.617676,208.087570 603.172119,227.433716 
	C564.884766,237.518906 531.798096,257.491852 503.277344,285.294006 
	C524.959045,312.239227 540.546997,342.026245 550.828979,374.433289 
	C595.968872,318.111450 652.138489,298.234833 720.580933,324.014526 
	C775.886353,344.846008 808.080322,399.392761 807.411255,453.947571 
	C806.712463,510.926941 770.504395,561.983704 717.097778,582.199829 
z"/>
<path fill="#EE7203" opacity="1.000000" stroke="none" 
	d="
M214.234741,672.745544 
	C226.717316,675.886536 239.088150,679.606995 251.707184,682.040283 
	C273.639984,686.269531 295.739044,686.728149 318.030273,684.182678 
	C347.673218,680.797668 375.471313,671.974548 401.682129,657.975830 
	C420.157440,648.108398 436.897217,635.788940 452.143311,621.404846 
	C454.628723,619.059937 454.509338,617.582458 452.549591,614.921387 
	C433.911224,589.613159 419.641266,562.086487 410.892181,531.801331 
	C410.518097,530.506348 409.646088,529.355225 408.752991,527.655457 
	C398.389191,542.926025 386.520844,555.674255 371.962799,565.926697 
	C355.330872,577.639709 337.121094,585.530151 317.139191,589.004944 
	C276.514343,596.069641 239.202423,587.356750 206.500671,562.522461 
	C177.775650,540.708130 159.920242,511.534515 153.804611,475.572235 
	C148.635834,445.177795 152.793335,416.077850 167.143066,388.934875 
	C188.084473,349.323395 220.880692,324.700104 264.916321,315.955139 
	C306.993835,307.598999 345.364166,317.198608 378.840179,343.578613 
	C407.269745,365.981873 424.122192,395.831451 429.209106,431.885468 
	C430.363159,440.065033 430.780273,448.380127 431.041046,456.648468 
	C431.985107,486.580475 438.307190,515.271118 450.058167,542.817566 
	C456.962219,559.001953 465.350647,574.352905 475.973877,588.348633 
	C496.507446,615.400757 520.904663,638.174805 550.571777,655.153442 
	C574.520325,668.859253 600.088257,677.996033 627.170044,682.544800 
	C648.978577,686.207886 670.950439,686.810547 693.082458,684.222046 
	C711.389648,682.080994 729.042175,677.663086 747.369263,671.695129 
	C745.120056,674.551147 743.600525,676.825073 741.746216,678.781799 
	C723.671936,697.855774 704.210632,715.355286 683.169128,731.145203 
	C646.335571,758.785828 606.581238,781.545654 564.774231,800.496460 
	C538.204773,812.540344 510.630646,822.376160 483.426819,832.996521 
	C481.215820,833.859680 478.173309,833.786255 475.872467,833.045044 
	C446.300507,823.519287 417.673462,811.623718 389.578522,798.386902 
	C355.305847,782.239380 322.179871,764.041016 291.341919,742.007690 
	C275.765808,730.878784 260.652985,718.988098 246.190506,706.449951 
	C234.682083,696.472717 224.478531,684.990295 213.739258,673.689209 
	C213.933487,673.049988 214.084122,672.897766 214.234741,672.745544 
z"/>
<path fill="#EE7203" opacity="1.000000" stroke="none" 
	d="
M213.542542,673.415527 
	C213.037613,673.148010 212.772995,672.667297 212.508392,672.186523 
	C212.974808,672.209351 213.441208,672.232239 214.071182,672.500366 
	C214.084122,672.897766 213.933487,673.049988 213.542542,673.415527 
z"/>
</svg>